<svg version="1.2" xmlns="http://www.w3.org/2000/svg" viewBox="0 0 118 132" width="30" height="34">
	<title>logo_GMX-svg</title>
	<defs>
		<clipPath clipPathUnits="userSpaceOnUse" id="cp1">
			<path d="m0 0h298v132h-298z"/>
		</clipPath>
		<linearGradient id="g1" x2="1" gradientUnits="userSpaceOnUse" gradientTransform="matrix(32.617,106.964,-108.344,33.038,26.5,18.5)">
			<stop offset="0" stop-color="#0f51fb"/>
			<stop offset=".445" stop-color="#6324fb"/>
			<stop offset="1" stop-color="#ef3678"/>
		</linearGradient>
	</defs>
	<style>
		.s0 { fill: url(#g1) } 
		.s1 { fill: #ffffff } 
		.s2 { fill: #fbfaff } 
	</style>
	<g id="Clip-Path" clip-path="url(#cp1)">
		<g id="Layer">
			<path id="Layer" class="s0" d="m51.8 1.9c4.4-2.5 10-2.5 14.4 0l44.6 25.8c4.4 2.6 7.2 7.4 7.2 12.5v51.6c0 5.1-2.8 9.9-7.2 12.5l-44.6 25.8c-4.4 2.5-10 2.5-14.4 0l-44.6-25.8c-4.4-2.6-7.2-7.4-7.2-12.5v-51.6c0-5.1 2.8-9.9 7.2-12.5z"/>
			<path id="Layer" class="s1" d="m75.8 51.5c0-0.4 0.2-0.9 0.6-1.4 0.6-0.7 1.3-0.9 1.8-0.9h7.2c0.9 0 1.6-0.7 1.6-1.6v-8c0-0.9-0.7-1.6-1.6-1.6h-8c-0.9 0-1.6 0.7-1.6 1.6v7.2c0 0.4-0.2 1-0.7 1.6-0.5 0.5-1.1 0.7-1.5 0.8h-7.4c-0.9 0-1.6 0.7-1.6 1.6v7.2c0 0.4-0.2 1-0.7 1.6-0.5 0.5-1.1 0.7-1.5 0.8h-6.8c-0.5-0.1-1.1-0.3-1.5-0.8-0.5-0.4-0.6-1-0.7-1.4v-7.4c0-0.9-0.7-1.6-1.6-1.6h-7.4c-0.5-0.1-1.1-0.3-1.5-0.8-0.5-0.4-0.6-1-0.7-1.4v-7.4c0-0.9-0.7-1.6-1.6-1.6h-8c-0.9 0-1.6 0.7-1.6 1.6v8c0 0.9 0.7 1.6 1.6 1.6h7.2c0.4 0 1.2 0.2 1.7 0.9 0.8 0.8 0.7 1.8 0.7 1.9v6c0 0.4-0.2 1-0.7 1.6-0.5 0.5-1.1 0.7-1.5 0.8h-7.4c-0.9 0-1.6 0.7-1.6 1.6v30.4c0 0.9 0.7 1.6 1.6 1.6h8c0.9 0 1.6-0.7 1.6-1.6v-29.7c0-0.4 0.2-0.9 0.6-1.4 0.6-0.7 1.4-0.9 1.8-0.9h6.4c0.4 0 1.2 0.2 1.7 0.9 0.8 0.8 0.7 1.8 0.7 1.9v6.8c0 0.9 0.7 1.6 1.6 1.6h8c0.9 0 1.6-0.7 1.6-1.6v-7.3c0-0.4 0.2-0.9 0.6-1.4 0.6-0.7 1.4-0.9 1.8-0.9h6.4c0.4 0 1.2 0.2 1.7 0.9 0.8 0.8 0.7 1.8 0.7 1.9v29.2c0 0.9 0.7 1.6 1.6 1.6h8c0.9 0 1.6-0.7 1.6-1.6v-30.4c0-0.9-0.7-1.6-1.6-1.6h-7.4c-0.5-0.1-1-0.3-1.5-0.8-0.5-0.4-0.6-1-0.7-1.4v-6.7z"/>
			<path id="Layer" class="s2" d="m147 91.2v-49.2c0-2 1.2-3.1 3.2-3.1h2.4c2.2 0 3 0.5 4 2.5l13.2 27.2 13.2-27.2c1-2 1.8-2.5 3.9-2.5h2.2c2.1 0 3.3 1.1 3.3 3.1v49.2c0 1.2-0.8 1.9-2 1.9h-2.3c-1.2 0-2-0.7-2-1.9v-42.6l-13.5 27.4c-0.7 1.5-1.5 2.1-2.9 2.1-1.3 0-2.2-0.6-2.9-2.1l-13.5-27.4v42.6c0 1.2-0.8 1.9-2 1.9h-2.3c-1.2 0-2-0.7-2-1.9z"/>
			<path id="Layer" class="s2" d="m206.1 91.7c0-0.7 0.2-1.2 1-2.4l15.5-23.5-15.2-23.1c-0.8-1.2-1.1-1.7-1.1-2.4 0-0.9 0.7-1.4 1.9-1.4h2.5c1.5 0 2.1 0.4 3 1.7l13.3 20.7 13.3-20.7c0.9-1.3 1.5-1.7 3-1.7h2.4c1.1 0 1.8 0.5 1.8 1.4 0 0.7-0.3 1.2-1 2.3l-15.2 23.2 15.4 23.5c0.8 1.2 1 1.7 1 2.4 0 0.9-0.6 1.4-1.7 1.4h-2.7c-1.5 0-2-0.4-2.9-1.7l-13.6-21.1-13.6 21.1c-0.8 1.3-1.5 1.7-2.9 1.7h-2.4c-1.2 0-1.8-0.5-1.8-1.4z"/>
			<path id="Layer" class="s2" d="m258.7 75.5v-19c0-11.9 7.3-18.5 20-18.5 12.6 0 19.3 5.5 19.3 17.1v1.7c0 1.1-0.6 1.6-1.5 1.6h-3.6c-0.9 0-1.5-0.5-1.5-1.5v-1.8c0-8.1-3.8-11.7-12.7-11.7-9 0-13.2 4.4-13.2 12.7v19.8c0 8.3 4.6 12.7 13.1 12.7 9 0 12.8-3.6 12.8-11.8v-2.3c0-0.9 0.6-1.4 1.5-1.4h3.6c0.9 0 1.5 0.5 1.5 1.5v2.2c0 11.7-6.3 17.2-19.4 17.2-13.1 0-19.9-6.6-19.9-18.5z"/>
		</g>
	</g>
</svg>